<svg aria-hidden="true" style="position:absolute;width:0;height:0;overflow:hidden" xmlns="http://www.w3.org/2000/svg"><defs><symbol id="icon-close" viewBox="0 0 20 20"><path fill="#fff" style="fill:var(--color1, #fff)" d="M20 10a10 10 0 1 1-20 0 10 10 0 0 1 20 0z"/><path fill="none" stroke="#000" style="stroke:var(--color2, #000)" stroke-width=".7" d="M19.7 10A9.7 9.7 0 1 1 .3 10a9.7 9.7 0 0 1 19.4 0z"/><path style="fill:var(--color2, #000)" d="m14 6.7-.7-.7-3 3-2.9-3-.7.7 2.9 3-3 2.9.8.7 3-2.9 2.9 3 .7-.8-3-3 3-2.9z"/></symbol><symbol id="icon-icon-send" viewBox="0 0 20 20"><path fill="#fff" style="fill:var(--color1, #fff)" d="M20 0 0 11.3l6.4 2.3 9.8-9.2-7.4 10V20l3.5-4.2 4.6 1.7L20 0z"/></symbol><symbol id="icon-group" viewBox="0 0 35 20"><path fill="#afb1b8" style="fill:var(--color3, #afb1b8)" d="M12.7 2.3 15 4.5h-4.3v10.8H22v-4.1l2.3 2.2v-11H12.7zm9.2 8.6-6.6-6.3h6.6V11zm-2 2.8h-7.4V6.5h.5v6.7h6.8v.5zm-5.7 3-.3.6-.2-.6h-.3l.4.7v.5h.2v-.5l.4-.7h-.2zm.3 1.2.1-.3h.5l.1.3h.2l-.4-1.2h-.2l-.5 1.2h.2zm.4-1 .1.5h-.3l.2-.4zm1 .5v.2l.1.2.3.1h.6l-.2-.2.1-.4h-.1l-.1.2-.2-.2.2-.2V16.8l-.3-.1h-.2v.5l-.1.2zm.6.3H16.2V17.4l.3.3zm-.2-.5-.1-.2v-.1h.2v.2h-.1zm2 .6v-.3h-.2v.2h-.4v-.8h.4v.2h.2v-.3l-.4-.1h-.3l-.1.2v.7l.1.2.3.1.3-.1zm1.1-.2V17l-.2-.1-.2-.1a.5.5 0 0 0-.4.3l-.1.2v.4l.2.2.3.1h.2l.2-.3zm-.2-.6v.6l-.2.1h-.2l-.1-.4V17l.3-.1h.2z"/></symbol><symbol id="icon-group1" viewBox="0 0 35 20"><path d="M16.7 2h-.8c-1.3 0-2.5.4-3.6.9v7.4h.3a12.7 12.7 0 0 1 3.6-.7v1h-.4a10.5 10.5 0 0 0-4.6 1.3V2.3c.8-.5 1.7-.8 2.6-1 .8-.3 1.6-.4 2.5-.4h.1a9.4 9.4 0 0 1 1.7.2v1L17 2h-.3zm1.7 1h.6c1 0 1.8-.1 2.7-.4.8-.2 1.7-.5 2.4-1V11c-.8.4-1.6.8-2.5 1h-.1l-2.5.4c-.7 0-1.3-.1-1.9-.3V2.8a7.3 7.3 0 0 0 1.3.2zM23 3l-.3.1-1 .3a9.3 9.3 0 0 1-3.4.3h-.2v7.6h.8a9.2 9.2 0 0 0 4-1v.2h.1V3zM12 15h-.7l-.3.2V17l.2.1.2.1H11.7c.2 0 .4-.3.4-.5v-.1h-.4v.2l-.2.1h-.1V15.3a.2.2 0 0 1 .1 0h.2V15.6h.4v-.4l-.2-.1zm1.9 0a.6.6 0 0 0-.4 0 .6.6 0 0 0-.5.2V17l.1.2.2.1H13.9l.1-.3v-1.7l-.1-.1zm-.2 1.7v.2a.2.2 0 0 1-.4 0V15.3a.2.2 0 0 1 .4 0v1.4zm2.8.5V15H16l-.4 1.3-.4-1.3H15v2.3h.3v-1.4l.3 1h.2l.3-1v1.4h.4zm1.8-2.1-.2-.1h-.7v2.2h.3v-.9h.5l.2-.2v-1zm-.1.7v.1l-.2.1H17.7v-.8h.4V15.9zm1.7-.9h-.3l-.5 2.3h.3l.1-.5h.5v.5h.4l-.5-2.3zm-.3 1.5.1-.8.2.8h-.3zm2.4 0-.5-1.5h-.3v2.3h.3V16l.5 1.3h.3V15H22v1.4zm2-1.5-.3 1-.3-1h-.3l.5 1.4v1h.3v-1l.4-1.4H24zm-13 3h.2v.4-.4h.2v-.1H11zm1.3-.1-.2.5h.1v-.1h.3v.1h.2l-.3-.5zm0 .3V18l.2.2h-.2zm1.3 0h.2v.1h-.2l-.1-.1.1-.2h.2l-.2-.1h-.2a.3.3 0 0 0 0 .3v.2h.5V18h-.3v.1zm1.4-.3h-.1v.5h.3-.2v-.5zm1.1 0H16v.5h.1v-.5zm1.1.3-.2-.3h-.1v.5-.3l.3.3h.1v-.5.3zm1 0h.3V18h-.3v-.1h.3v-.1h-.4v.5h.4-.3V18zm2.4-.1h-.2v-.2.5-.2h.2v.2h.1v-.5.2zm1 0h.3-.3v-.1h.3v-.1h-.4v.5h.4-.3V18zm1.4 0h.1v-.2h-.4v.5h.1v-.2h.1l.2.2V18zm-.1 0V18h.1v.1h-.1zm1.1 0h.3-.3v-.1h.3v-.1H24v.5h.4-.3V18z"/></symbol><symbol id="icon-group2" viewBox="0 0 35 20"><path " d="M12.1 16.4h.1l-.2.2h-.5l-.2-.1-.2-.2V16c0-.2 0-.3.2-.4l.2-.1h.7v.1h-.8v.2l-.1.2v.2l.1.2h.7zm2.1-.4v.3l-.1.2h-.3a.9.9 0 0 1-.5 0H13l-.2-.2a.6.6 0 0 1 0-.5.6.6 0 0 1 .4-.3.8.8 0 0 1 .5 0h.2l.2.3v.2zm-.2 0v-.2l-.2-.2a.6.6 0 0 0-.4 0h-.2v.2a.6.6 0 0 0 0 .4c0 .1 0 .2.2.3h.4l.1-.1.1-.2V16zm1.7.2.5-.8h.2v1.2h-.2v-.9l-.4.7h-.1l-.6-.7v1H15v-1.3h.1l.5.8zm1.7 0v.4h-.2v-1.2h.7l.1.1.1.1v.5h-.7zm0-.2h.4l.2-.2v-.1h-.1l-.2-.2h-.3v.5zm2.5.6h-.2l-.2-.3H19l-.1.3h-.2l.5-1.2h.2l.6 1.2zm-1-.4h.6l-.2-.5v-.1h-.1l-.2.6zm1.7-.8.9 1v-1h.1v1.2h-.1l-.8-1v1.1h-.2v-1.3h.1zm2.4.7v.5h-.2v-.5l-.5-.7h.2l.3.5v.1h.1l.3-.5H23.6l-.5.6zm-7.4-2.7h.2c1.2-.4 2.3-1.2 3-2.2s1-2.1 1-3.3l-1.3-1.2c.3 1.3.2 2.6-.4 3.7s-1.4 2.2-2.5 3z"/><path d="M15.1 13.4c1.3-.8 2.2-1.9 2.7-3.1s.6-2.6.3-3.9l-2-1.6a7.2 7.2 0 0 1-1 8.6zm6.5-4.1a6 6 0 0 1-2.2 3.3 7 7 0 0 1-1 .6h-.1a6 6 0 0 0 4.1-3.3l-.8-.6z"/><path d="m21.3 9-1.1-.9c0 1.1-.4 2.2-1 3.1s-1.6 1.7-2.8 2.3h.8c1-.4 2-1 2.7-1.8S21 10 21.3 9.1zm-6-5L13.9 3c-1.2.4-2.2 1.1-2.9 2S9.9 7 9.9 8c0 1.2.5 2.4 1.3 3.4s2.1 1.6 3.5 1.9c1.2-1.3 1.9-2.9 2-4.5s-.4-3.4-1.4-4.7zm9 5c0-1.5-.6-3-1.8-4s-2.7-1.5-4.4-1.6a7 7 0 0 0-2.3.4l8.2 7c.2-.5.4-1.2.4-1.9z"/></symbol><symbol id="icon-group3" viewBox="0 0 35 20"><path  d="M8 7c-.8 0-1.4.6-1.4 1.3 0 .7.6 1.3 1.4 1.3.8 0 1.5-.6 1.5-1.3C9.5 7.6 8.8 7 8 7zm10.7-.4c0-1-.4-2-1.2-2.6s-1.8-1.1-3-1.1c-1 0-2.1.4-3 1s-1.1 1.7-1.1 2.7v5.5s8.3-.9 8.3-5.5zM3.7 14c0 .6.3 1.3.8 1.8s1.3.7 2 .7c.9 0 1.6-.2 2.1-.7s.9-1.2.9-1.8V10s-5.8.5-5.8 3.8zm2.9.6h-.4a.7.7 0 0 1-.3-.4.6.6 0 0 1 0-.4l.1-.3.4-.2a.9.9 0 0 1 .5 0l.3.3.1.3a.6.6 0 0 1-.2.5.8.8 0 0 1-.5.2zm5.3-1.2v1.4h-.3v-1.4h.3zm.6.6v.2h-.7V14h.7zm0-.6v.2h-.7v-.2h.7zm1.4.7v.4l-.2.2-.2.1c0 .1-.1 0-.2 0H13l-.2-.1v-.2l-.1-.3v-.4l.1-.2.2-.2h.3a.6.6 0 0 1 .4.2l.1.2v.3zm-.3 0v-.4H13l-.1.2v.6h.1l.2.1h.2V14zm1.2.4v-.1l-.1-.1h-.1l-.2-.1-.2-.1v-.1l-.1-.2v-.2h.1l.2-.2a.7.7 0 0 1 .5 0l.2.2v.2h-.3v-.2H14.4l-.1.1v.2h.1l.2.1h.2l.1.2.1.1c.1.1 0 .1 0 .2v.1l-.1.2h-.8l-.1-.2v-.2h.2v.1c0 .1 0 0 .1 0l.1.1h.2l.1-.1zm1.2-1v1.3h-.3v-1.4h.3zm.4 0v.1h-1.2v-.2h1.2zm1.1 1.1v.2h-.7v-.2h.7zm-.6-1.2v1.4h-.3v-1.4h.3zm.5.6v.2h-.6V14h.6zm.1-.6v.2h-.7v-.2h.7zm.2 0h.8l.2.2v.4l-.1.2h-.2v.1h-.5V14h.5v-.4H18v1.1h-.3v-1.4zm.8 1.4-.3-.6h.3l.3.6h-.3zm1.5-.5h-.3V14h.5v-.1a.3.3 0 0 0 0-.2v-.1h-.4v1.1h-.3v-1.4h.8l.2.2v.5l-.2.2H20zm1.7.3v.2H21v-.2h.7zm-.6-1.2v1.4h-.3v-1.4h.3zm.5.6v.2H21V14h.6zm.1-.6v.2H21v-.2h.7zm.8 0v1.4h-.3v-1.4h.3zm.5 0v.2h-1.2v-.2H23zm1.1 1.2v.2h-.8v-.2h.8zm-.7-1.2v1.4h-.3v-1.4h.3zm.6.6v.2h-.7V14h.7zm.1-.6v.2h-.8v-.2h.8zm.2 0h.8l.2.2v.4l-.1.2H25v.1h-.5V14h.4l.1-.1V13.6h-.4v1.1h-.3v-1.4zm.8 1.4-.4-.6h.3l.4.6H25zm1.2-.3v-.1l-.1-.1H26l-.2-.1-.1-.1-.1-.1v-.4l.2-.2a.7.7 0 0 1 .5 0l.2.2v.2h-.2l-.1-.2H25.9V13.8l.2.1h.2l.2.2V14.7h-.8l-.2-.2v-.2h.3v.1c0 .1 0 0 0 0l.2.1h.2v-.1z"/></symbol><symbol id="icon-group4" viewBox="0 0 35 20"><path  d="M9 15v.5l-.1.1a.9.9 0 0 1-.6.2h-1v-2h1.5l.1.2v.6l-.3.1.3.2zm-1.2-.4H8.4l.1-.2v-.2l-.3-.1h-.4v.5zm.7.8V15l-.3-.1h-.4v.6h.4l.3-.1zm2.4.4-.6-.8h-.2v.8h-.4v-2h.9l.5.1a.6.6 0 0 1 .2.5l-.1.4-.4.2.6.8h-.5zm-.8-1h.4c.3 0 .4-.2.4-.4v-.1l-.1-.1-.3-.1h-.4v.6zm3.2.6h-.9l-.1.4h-.5l.8-2h.5l.9 2h-.5l-.2-.4zm0-.3-.4-.9-.3.9h.6zm3.1.7H16l-1-1.4v1.4h-.5v-2h.5l1 1.3v-1.4h.4v2.1zm2.6-.5c0 .2-.2.3-.4.4l-.6.1h-.8v-2h1.4l.4.4.2.6-.2.5zm-.5 0 .2-.5c0-.2 0-.4-.2-.5a.8.8 0 0 0-.5-.2h-.4v1.3h.3a.8.8 0 0 0 .6-.1zm-4.9-13s5.8 2 5.7 4.9V12s-5.8-2-5.7-5V2.4zm10.9 8.6a8.4 8.4 0 0 1 3.7-1.2V8.2a7.5 7.5 0 0 0-3.7 2.7z"/><path  d="M23.8 11.4c1-1.7 2.5-3 4.4-3.6V3.4s-8.3 2.9-8.1 7v7l1-.4v-.6a7 7 0 0 1 2.7-5z"/><path  d="M23 14c0-.5.2-1 .3-1.4a6.5 6.5 0 0 0-1.7 4.2l1.7-.8h-.1c-.2-.6-.2-1.3-.2-2zm.4 0a6.2 6.2 0 0 0 0 2v-.1c2.3-1.3 4.9-3.2 4.8-5.5v-.2c-1.6.2-3.2.8-4.3 1.8-.3.6-.5 1.3-.5 2z"/></symbol><symbol id="icon-group5" viewBox="0 0 35 20"><path  d="M17.8 9.1a1 1 0 0 1-.2-.6v-1c0-.3 0-.5.2-.7s.4-.2.7-.2c.3 0 .5 0 .6.2.2.2.3.4.2.6v.2h-.5v-.4l-.1-.2h-.4l-.1.2v1.7h.2V9H18.8v-.7h.6v.3c0 .2 0 .4-.2.6l-.6.2c-.3 0-.6-.1-.7-.3zm2.3 0c-.2-.1-.2-.3-.2-.6v-1c0-.3 0-.5.2-.7s.4-.2.7-.2c.3 0 .5 0 .7.2s.2.4.2.7v1c0 .3 0 .5-.2.6l-.7.3c-.3 0-.6-.1-.7-.3zm1-.2V7.1l-.2-.1H20.5c-.1.2-.2.3-.1.4v1.5h.1l.2.1h.2v-.1zm1.2-2.3h.6l.5 2 .4-2h.6v2.7H24V7.5l-.5 1.8h-.3l-.4-1.8v1.8h-.5V6.6zm2.8 0h1c.5 0 .7.3.7.8s-.3.7-.8.7h-.3v1.2H25V6.6zm.8 1.2a.4.4 0 0 0 .3 0c0-.2.1-.3 0-.4V7l-.3-.1h-.2v.8h.2zm1.7-1.2h.6l.7 2.7h-.6v-.6h-.6l-.2.6H27l.6-2.7zm.6 1.8-.3-1.1-.2 1.1h.5zm1.2-1.8h.4l.7 1.6V6.6h.5v2.7h-.4L30 7.7v1.6h-.5V6.6zM32 8.3l-.6-1.7h.5l.4 1.1.3-1h.6l-.7 1.6v1h-.5v-1zm-13.4 2.2v.2h-.5v1H18v-1h-.4v-.2h1zm1.4 1.2H20l-.2-.3H19v.3H18.7l.6-1.2h.2l.5 1.2zm-1-.4h.6l-.2-.5v-.1l-.3.6zm2 .3h.1a.7.7 0 0 0 .2 0v-.3h-.2v-.1h.4v.4l-.2.1a1.1 1.1 0 0 1-.3 0h-.3l-.2-.1-.2-.2v-.5l.2-.2.2-.2a1 1 0 0 1 .5 0 .9.9 0 0 1 .2 0l.1.2H20.6v.2h-.1a.6.6 0 0 0 0 .4l.1.2.2.1h.2zm1.8 0h.6v.1h-.8v-1.2h.2v1.1zm1.3.1H24v-1.2h.2v1.2zm.7-1.2.9 1v-1h.1v1.2h-.1l-.9-1v1h-.1v-1.2h.1zm2.4 0v.1h-.6v.5h.5-.5v.5h.6v.1h-.8v-1.2h.8zM7.1 3l8.6 2v7.5L7 10.3V2.9zm-.6-.6v8.3l9.7 2.4V4.6L6.5 2.3z"/><path  d="M11.7 16.9 2 14.5V6.1l9.7 2.4V17zM6.7 2.8l8.4 2L11.5 8 3.1 6l3.6-3.2zm-.2-.5L2 6l9.7 2.4 4.5-3.9-9.7-2.3zm5.7 14.1 4-3.4-4-1v4.4z"/></symbol><symbol id="icon-clock" viewBox="0 0 20 20"><path fill="#212121" style="fill:var(--color5, #212121)" d="M19.6 9.6a9.6 9.6 0 1 0-12.6 9h.4c.1 0 .2 0 .2-.2l2.4-7.6a1.2 1.2 0 1 0-.5-2.3L6.3 5.3a.4.4 0 0 0-.6.6L9 9a1.2 1.2 0 0 0 .3 1.4L7 17.8a8.8 8.8 0 1 1 6.6-.3l-.3-1.1a.4.4 0 0 0-.6-.2l-2.4 2.1a.4.4 0 0 0 .1.7l3 1a.4.4 0 0 0 .6-.5l-.3-1.1a9.6 9.6 0 0 0 5.9-8.8zM10 9.2a.4.4 0 1 1 0 .8.4.4 0 1 1 0-.8zm1.3 9.3 1.4-1.3.4 1.8-1.8-.5z"/><path fill="#2196f3" style="fill:var(--color4, #2196f3)" d="M9.6 2v.8a.4.4 0 1 0 .8 0V2a.4.4 0 1 0-.8 0zM2.4 9.2a.4.4 0 1 0 0 .8h.8a.4.4 0 1 0 0-.8h-.8zm15.2.8a.4.4 0 1 0 0-.8h-.8a.4.4 0 1 0 0 .8h.8z"/></symbol><symbol id="icon-antena" viewBox="0 0 19 20"><path fill="#212121" style="fill:var(--color5, #212121)" d="m18.7 13.8-5.3-5.3.6-2.9.4.1a1.3 1.3 0 1 0-1.2-.9l-3.1.4L5 0 4.7 0l-.2.1-1 1a.3.3 0 0 0 0 .4l.5.5a9.3 9.3 0 0 0 1.6 11l.1.1v4.2h-4c-1 0-1.7.8-1.7 1.7v.7c0 .2.1.3.3.3h15.4c.1 0 .3-.1.3-.3V19c0-1-.7-1.7-1.7-1.7h-4v-1.7a9.5 9.5 0 0 0 6.4-1v.1l.4.5.3.1h.2l1-1a.3.3 0 0 0 0-.5zM14 4a.7.7 0 0 1 1.1.5c0 .3-.3.6-.7.6A.7.7 0 0 1 14 4zm-.8 2.2-.4 1.8-.7-.7L13 6zm-.4-.6-1.2 1.2-1-1 2.2-.2zM14.4 18c.6 0 1 .4 1 1v.3H.8V19c0-.6.4-1 1-1h12.6zm-4.6-1.3v.6H6.4v-.6h3.4zM6.4 16v-2.5c0-.8.8-1.5 1.7-1.5s1.7.7 1.7 1.5V16H6.4zm4-1v-1.5c0-1.2-1-2.2-2.3-2.2-.9 0-1.6.5-2 1.1a8.6 8.6 0 0 1-1.5-10v.1l11.6 11.7a8.5 8.5 0 0 1-5.8.7zm7-.5L4.5 1.3l.4-.5 5 5L18 14l-.5.5z"/><path fill="#2196f3" style="fill:var(--color4, #2196f3)" d="M8.1 12.7a1 1 0 0 0 0 2 1 1 0 0 0 0-2zm.2 1.2-.2.1a.3.3 0 0 1 0-.7.3.3 0 0 1 .2.6z"/></symbol><symbol id="icon-astronaut" viewBox="0 0 20 20"><path fill="#2196f3" style="fill:var(--color4, #2196f3)" d="m20 2.8-.3-.2-1.2-.2-.5-1c-.1-.3-.5-.3-.6 0l-.5 1-1.2.2a.3.3 0 0 0-.2.6l.8.8-.2 1.2c0 .1 0 .3.2.3h.3l1-.5 1.2.6h.1a.3.3 0 0 0 .3-.4L19 4l.9-.8a.3.3 0 0 0 0-.4zm-1.6.9V4.6l-.6-.3a.3.3 0 0 0-.3 0l-.6.3.1-.6a.3.3 0 0 0 0-.3l-.6-.5.7-.1.3-.2.3-.7.3.7.3.2h.7l-.6.6zm-2 9.1h-.7v.7h.6v-.7zm0 1.4h-.7v.6h.6v-.6zm.6-.7h-.7v.7h.7v-.7zm-1.3 0H15v.7h.7v-.7zm-1.7 3h-.7v.7h.7v-.7zm0 1.3h-.7v.7h.7v-.7zm.7-.6H14v.6h.7v-.6zm-1.4 0h-.6v.6h.6v-.6zm-3.3-2h-.7v.6h.7v-.6zm0 1.3h-.7v.7h.7v-.7zm.7-.7H10v.7h.7v-.7zm-1.4 0h-.6v.7h.6v-.7zm-5.6-12H3v.7h.7v-.7zm0 1.4H3v.6h.7v-.6zm.6-.7h-.6v.7h.6v-.7zM3 4.5h-.7v.7H3v-.7z"/><path fill="#212121" style="fill:var(--color5, #212121)" d="M15.4 8.8c-.1-.2-.4-.3-.7-.4a1.1 1.1 0 0 0-.8.2l-.8.6-1.2 1-.9-.4a4.3 4.3 0 0 0-1.7-8.3 4.3 4.3 0 0 0-3.7 6.7H3.8l-2 1-1.3.6a1.1 1.1 0 0 0-.4 1.4c.2.3.4.5.7.6H1l.5-.1 1-.5 1.3-.7h.9l-3.4 3.4-.9.8a1 1 0 0 0 .7 1.8c.3 0 .6-.1.8-.3l.8-.8 1.1-.8.6.5-2 2a1 1 0 0 0 .7 1.8c.3 0 .6-.2.8-.4l2.8-2.8 3.3-3.5 2.1.3h.2l2-1.4h.1l.8-.8a1.1 1.1 0 0 0 .1-1.5zm-14 2.3a.4.4 0 0 1-.4 0 .4.4 0 0 1-.2-.7l.9-.4.2.5v.3l-.6.3zM3.4 10l-1 .5-.1-.5-.1-.3L3.5 9v1zM13 5.8c0 .6-.2 1.1-.4 1.6L10 6.2c0-.3-.2-.6-.5-.8l.9-3c1.5.4 2.6 1.8 2.6 3.4zm-7.4 0a3.7 3.7 0 0 1 4.1-3.6l-.9 3c-.6 0-1.2.5-1.2 1.1 0 .7.6 1.2 1.2 1.2.4 0 .8-.2 1-.6L12.2 8a3.7 3.7 0 0 1-6.6-2.2zm3.7.5c0 .3-.2.5-.5.5a.5.5 0 0 1-.5-.5c0-.3.2-.5.5-.5s.5.2.5.5zm-7.8 9.4a.4.4 0 0 1-.5 0 .4.4 0 0 1 0-.5l.6-.6.5.5-.6.6zm2 2.4a.4.4 0 0 1-.5 0 .4.4 0 0 1 0-.6l.6-.6.5.6-.6.6zm2.2-2.2-1 1-.6-.4 1-1.1.1-.1v-.4l-1-1H4v-.1H3.7l-1.2.9-.5-.6 1.5-1.5 2.7 2.7-.6.6zm4.3-4.4h-.2l-.1.1-3 3.2-2.6-2.6 1.7-1.8a.3.3 0 0 0-.2-.6H4.2v-1h2c.7.9 1.8 1.4 3 1.4l.9-.1 1.6.6v.5l.2.6-2-.3zm2.5.1-.2-1 1-.6.5.7-1.3 1zM15 9.8l-.6.5-.5-.7.5-.4a.5.5 0 0 1 .6 0l.1.3-.1.3z"/><path fill="#212121" style="fill:var(--color5, #212121)" d="m8.5 11.6-1.3-1.3a.3.3 0 0 0-.5 0l-1.3 1.3a.3.3 0 0 0 0 .5l1.3 1.3a.3.3 0 0 0 .5 0l1.3-1.3.1-.3-.1-.2zm-1.6 1-.8-.8.8-.8.9.8-.9.9zm3.8-9.4-.1.6s1 .3 1 1.4h.7c0-1.3-1-1.9-1.6-2zm1.6 2.6h-.6v.7h.6v-.7z"/></symbol><symbol id="icon-diagram" viewBox="0 0 20 20"><path fill="#2196f3" style="fill:var(--color4, #2196f3)" d="M9.3 9.4h.7v3h-.7v-3zm2.7 1.3h.7v1.7H12v-1.7zm-5.3 1h.6v.7h-.6v-.7zm-2-.3h.6v1h-.6v-1z"/><path fill="#212121" style="fill:var(--color5, #212121)" d="M1 17.7h16c.5 0 1-.5 1-1v-1.3c0-.6-.5-1-1-1h-.3V6l1.8-1.8.5.2a1 1 0 1 0-1-.6L16.8 5v-.7c0-.6-.5-1-1-1H2.3a1 1 0 0 0-1 1v10H1a1 1 0 0 0-1 1v1.3c0 .5.4 1 1 1zM19 3a.3.3 0 1 1 0 .7.3.3 0 1 1 0-.7zM2 4.4c0-.2.1-.4.3-.4h13.4c.1 0 .3.2.3.4v1.4l-.7.6V5c0-.2-.1-.3-.3-.3H3c-.2 0-.3.1-.3.3v8.4c0 .1.1.3.3.3h12c.2 0 .3-.2.3-.3V7.3l.7-.6v7.6H2v-10zm3 4.3a1 1 0 1 0 .7 1.7l1.1.6h.4L9.7 8l2.4 1.9h.5l2-2v5H3.4V5.4h11.4V7l-2.4 2.2-2.4-1.8h-.5L7 10.4l-1-.5.1-.1c0-.6-.4-1-1-1zm.3 1a.3.3 0 1 1-.6 0 .3.3 0 1 1 .6 0zm2 5.3h3.4v.3c0 .2-.2.4-.4.4H7.7a.3.3 0 0 1-.4-.3V15zm-6.6.3c0-.1.1-.3.3-.3h5.7v.3c0 .6.4 1 1 1h2.6c.6 0 1-.4 1-1V15H17c.2 0 .3.2.3.3v1.4c0 .2-.1.3-.3.3H1a.3.3 0 0 1-.3-.3v-1.3z"/></symbol><symbol id="icon-facebook" viewBox="0 0 20 20"><path d="M13.3 3.3h1.9V.1L12.6 0h-.1C9.9 0 8.1 1.7 8.1 4.7v2.8H5v3.6h3V20h3.5v-9h2.8l.5-3.5h-3.3V5c0-1 .3-1.7 1.7-1.7z"/></symbol><symbol id="icon-instagram" viewBox="0 0 20 20"><path d="M20 5.9c0-1-.2-1.8-.5-2.4-.2-.7-.6-1.3-1.1-1.8A5 5 0 0 0 16.6.5 68 68 0 0 0 3.5.5a5 5 0 0 0-1.8 1.2A5 5 0 0 0 .6 3.4C.3 4.1 0 4.8 0 6a68 68 0 0 0 .5 10.6 5 5 0 0 0 1.1 1.8 5 5 0 0 0 1.8 1.2c.6.2 1.3.4 2.4.4a73 73 0 0 0 10.7-.4 5.1 5.1 0 0 0 2.9-3c.3-.6.4-1.3.5-2.4V6zM18.2 14c0 1-.2 1.5-.4 1.9-.3.9-1 1.6-1.8 1.9-.4.1-1 .3-2 .3a70.2 70.2 0 0 1-9.9-.3 3 3 0 0 1-1.1-.7c-.3-.4-.6-.7-.7-1.2-.2-.3-.4-.9-.4-1.9a70.2 70.2 0 0 1 .3-9.9L3 3c.3-.4.7-.6 1.1-.8.4-.1 1-.3 1.9-.3a71.7 71.7 0 0 1 10 .3c.4.2.8.4 1 .8.4.3.7.7.8 1.1.2.4.3.9.4 1.9v8z"/><path d="M10 4.9A5.1 5.1 0 0 0 5 10a5.1 5.1 0 0 0 10.3 0c0-2.8-2.3-5.1-5.2-5.1zm0 8.4a3.3 3.3 0 1 1 0-6.6 3.3 3.3 0 1 1 0 6.6zm6.6-8.6a1.2 1.2 0 1 1-2.4 0 1.2 1.2 0 1 1 2.4 0z"/></symbol><symbol id="icon-linkedin" viewBox="0 0 20 20"><path d="M20 20v-7.3c0-3.6-.8-6.4-5-6.4-2 0-3.3 1.1-3.9 2.2V6.6H7V20h4.1v-6.6c0-1.8.3-3.4 2.5-3.4 2.1 0 2.2 2 2.2 3.5V20H20zM.3 6.6h4.2V20H.3V6.6zM2.4 0C1.1 0 0 1 0 2.4c0 1.3 1 2.4 2.4 2.4s2.4-1 2.4-2.4c0-1.3-1-2.4-2.4-2.4z"/></symbol><symbol id="icon-mail" viewBox="0 0 27 20"><path d="M24.2 0H2.5A2.5 2.5 0 0 0 0 2.5v15C0 18.9 1.1 20 2.5 20h21.7c1.3 0 2.5-1.1 2.5-2.5v-15c0-1.4-1.2-2.5-2.5-2.5zm0 1.7h.3l-11.2 9.7L2.2 1.7h22zm0 16.6H2.5a.8.8 0 0 1-.8-.8v-14l11 9.6a.8.8 0 0 0 1.2 0L25 3.5v14c0 .5-.4.8-.8.8z"/></symbol><symbol id="icon-smartphone" viewBox="0 0 13 20"><path  d="M10.6 0H2C.9 0 0 .8 0 1.9V18c0 1 .8 1.9 1.9 1.9h8.7c1 0 1.9-.8 1.9-1.9V2c0-1-.8-1.9-1.9-1.9zM2 1.3h8.7c.4 0 .7.2.7.6V15h-10V1.9c0-.4.2-.6.6-.6zm8.7 17.4H2a.6.6 0 0 1-.6-.6v-1.9h10v2c0 .3-.3.6-.7.6z"/><path d="M3 17.2a.6.6 0 0 1 0 .8.7.7 0 0 1-1 0 .6.6 0 0 1 0-.8.7.7 0 0 1 1 0z"/></symbol><symbol id="icon-twitter" viewBox="0 0 20 20"><path  d="M20 3.8c-.7.3-1.5.5-2.3.6.8-.5 1.4-1.3 1.7-2.2a8 8 0 0 1-2.5 1A4 4 0 0 0 9.6 6l.1 1C6.4 6.6 3.4 5 1.4 2.5a4.1 4.1 0 0 0 1.3 5.5 4 4 0 0 1-2-.5h.1c0 2 1.4 3.7 3.3 4a4 4 0 0 1-1 .2h-.9c.6 1.6 2 2.8 3.9 2.8A8.2 8.2 0 0 1 1 16.3H0C1.8 17.4 4 18 6.3 18A11.6 11.6 0 0 0 17.9 6c.9-.6 1.5-1.3 2-2l.1-.1z"/></symbol></defs></svg>